<?xml version="1.0" encoding="utf-8"?>
<!-- Generator: Adobe Illustrator 19.2.1, SVG Export Plug-In . SVG Version: 6.00 Build 0)  -->
<svg version="1.1" id="layer" xmlns="http://www.w3.org/2000/svg" xmlns:xlink="http://www.w3.org/1999/xlink" x="0px" y="0px"
	 viewBox="0 0 652 652" style="enable-background:new 0 0 652 652;" xml:space="preserve">
<style type="text/css">
	.st0{fill:#333333;}
	.st1{fill:#ED1C24;}
	.st2{fill:#29ABE3;}
	.st3{fill:#F7941F;}
	.st4{fill:#662E91;}
	.st5{fill:#FCED21;}
	.st6{fill:#94268F;}
	.st7{fill:#8CC740;}
</style>
<g>
	<path class="st0" d="M26.7,313.2c0-7.3-0.1-13.5-0.5-18.9h14.3l0.7,9.4h0.4c3.3-5,9.2-10.8,20.3-10.8c8.7,0,15.4,4.7,18.3,11.8h0.3
		c2.3-3.5,5-6.1,8.1-8c3.7-2.5,7.9-3.8,13.3-3.8c11,0,22.1,7.2,22.1,27.6v37.5h-16.2v-35.1c0-10.6-3.8-16.9-11.8-16.9
		c-5.7,0-9.9,3.9-11.6,8.5c-0.4,1.6-0.8,3.5-0.8,5.4v38.2H67.2V321c0-8.9-3.6-15.2-11.4-15.2c-6.2,0-10.4,4.7-11.9,9.1
		c-0.7,1.6-0.9,3.4-0.9,5.2v37.6H26.7V313.2z"/>
	<path class="st0" d="M149.7,294.3l11.9,34.1c1.4,3.9,2.7,8.8,3.7,12.4h0.4c1.1-3.7,2.3-8.4,3.5-12.5l10.3-34h17.9l-16.5,43.4
		c-9.1,23.8-15.2,34.4-23,40.9c-6.5,5.6-13.3,7.7-17.5,8.2l-3.8-13.6c2.8-0.6,6.4-2.1,9.7-4.4c3.1-2,6.8-5.8,9.1-10.1
		c0.7-1.2,1.1-2.1,1.1-2.9c0-0.6-0.1-1.6-0.9-3.1l-24.1-58.4H149.7z"/>
	<path class="st0" d="M207.3,340.4c5.4,3,13.5,5.6,22.1,5.6c10.7,0,16.7-4.8,16.7-12c0-6.7-4.6-10.6-16.2-14.6
		c-15-5.2-24.6-12.9-24.6-25.6c0-14.4,12.5-25.3,32.2-25.3c9.9,0,17.2,2.1,21.9,4.4l-4.1,12.9c-3.3-1.7-9.6-4.2-18.1-4.2
		c-10.6,0-15.2,5.5-15.2,10.6c0,6.8,5.3,9.9,17.5,14.5c15.8,5.8,23.6,13.5,23.6,26.1c0,14.1-11.1,26.5-34.7,26.5
		c-9.6,0-19.6-2.7-24.6-5.6L207.3,340.4z"/>
	<path class="st0" d="M402.8,355.9c-3.5,1.6-10.4,3.4-18.7,3.4c-20.6,0-34-12.8-34-32.5c0-19.1,13.5-34,36.7-34
		c6.1,0,12.3,1.3,16.1,3l-3,12c-2.7-1.2-6.6-2.5-12.6-2.5c-12.7,0-20.3,9-20.2,20.6c0,13.1,8.8,20.5,20.2,20.5
		c5.8,0,9.9-1.2,13.1-2.5L402.8,355.9z"/>
</g>
<rect x="415.2" y="294.3" class="st0" width="16.8" height="63.6"/>
<path class="st0" d="M432.9,276.5c0,4.8-3.7,8.6-9.5,8.6c-5.6,0-9.2-3.8-9.2-8.6c0-5,3.8-8.8,9.3-8.8
	C429.2,267.7,432.8,271.5,432.9,276.5"/>
<path class="st0" d="M490.6,319.3c0.1-5.9-2.6-15.6-13.7-15.6c-10.3,0-14.6,9-15.3,15.6H490.6z M461.6,330.6
	c0.4,11.5,9.8,16.5,20.3,16.5c7.7,0,13.3-1,18.3-2.9l2.4,11.1c-5.7,2.2-13.5,4-23,4c-21.4,0-34-12.8-34-32.3
	c0-17.6,11.1-34.2,32.2-34.2c21.5,0,28.4,17,28.4,31c0,3-0.3,5.4-0.5,6.8H461.6z"/>
<path class="st0" d="M538.7,277.9v16.3h15.8v12h-15.8v28.1c0,7.7,2.2,11.8,8.5,11.8c3.1,0,4.6-0.3,6.5-0.8l0.3,12.3
	c-2.4,0.9-6.8,1.7-12,1.7c-6.1,0-11.2-2.1-14.4-5.4c-3.5-3.7-5.1-9.4-5.1-17.8v-29.9H513v-12h9.5v-11.8L538.7,277.9z"/>
<path class="st0" d="M578.5,294.3l11.9,34.1c1.3,3.9,2.7,8.8,3.6,12.4h0.4c1.1-3.7,2.3-8.4,3.5-12.5l10.3-34h17.9l-16.5,43.4
	c-9.1,23.8-15.2,34.4-23,40.9c-6.5,5.6-13.3,7.7-17.5,8.2l-3.8-13.6c2.8-0.7,6.4-2.1,9.7-4.4c3.1-2,6.8-5.8,9.1-10.1
	c0.7-1.2,1.1-2.1,1.1-2.9c0-0.7-0.1-1.6-0.9-3.1l-24.1-58.4H578.5z"/>
<path class="st1" d="M305.1,290.2c4.7,0,8.5,3.7,8.5,8.2c0,4.5-3.8,8.2-8.5,8.2c-4.7,0-8.5-3.7-8.5-8.2
	C296.6,293.9,300.4,290.2,305.1,290.2"/>
<path class="st2" d="M305.1,344.9c4.7,0,8.5,3.7,8.5,8.2c0,4.5-3.8,8.2-8.5,8.2c-4.7,0-8.5-3.7-8.5-8.2
	C296.6,348.6,300.4,344.9,305.1,344.9"/>
<path class="st3" d="M325.4,298.4c4.7,0,8.5,3.7,8.5,8.2c0,4.5-3.8,8.2-8.5,8.2c-4.7,0-8.5-3.7-8.5-8.2
	C316.9,302.1,320.7,298.4,325.4,298.4"/>
<path class="st4" d="M290.8,350.7c-3.4,3.1-8.7,3.1-12-0.1c-3.3-3.2-3.2-8.4,0.1-11.6c3.3-3.2,8.7-3.1,12,0.1
	C294.2,342.4,294.1,347.5,290.8,350.7"/>
<path class="st5" d="M333.4,317.3c4.7,0,8.5,3.7,8.5,8.2c0,4.5-3.8,8.2-8.5,8.2c-4.7,0-8.5-3.7-8.5-8.2
	C325,321,328.8,317.3,333.4,317.3"/>
<path class="st6" d="M276.8,317.8c4.7,0,8.5,3.7,8.5,8.2c0,4.5-3.8,8.2-8.5,8.2c-4.7,0-8.5-3.7-8.5-8.2
	C268.3,321.5,272.1,317.8,276.8,317.8"/>
<path class="st7" d="M319.2,350.9c-3.3-3.2-3.3-8.4,0-11.6c3.3-3.2,8.7-3.2,12,0c3.3,3.2,3.3,8.4,0,11.6
	C327.8,354.1,322.5,354.1,319.2,350.9"/>
</svg>
