<?xml version="1.0" encoding="UTF-8" standalone="no"?>
<!-- Created with Inkscape (http://www.inkscape.org/) -->

<svg
   xmlns:dc="http://purl.org/dc/elements/1.1/"
   xmlns:cc="http://creativecommons.org/ns#"
   xmlns:rdf="http://www.w3.org/1999/02/22-rdf-syntax-ns#"
   xmlns:svg="http://www.w3.org/2000/svg"
   xmlns="http://www.w3.org/2000/svg"
   xmlns:sodipodi="http://sodipodi.sourceforge.net/DTD/sodipodi-0.dtd"
   xmlns:inkscape="http://www.inkscape.org/namespaces/inkscape"
   width="186"
   height="28"
   viewBox="0 0 49.212497 7.4083335"
   version="1.1"
   id="svg8"
   inkscape:version="0.92.5 (2060ec1f9f, 2020-04-08)"
   sodipodi:docname="rtk-pro-logo-white.svg">
  <defs
     id="defs2" />
  <sodipodi:namedview
     id="base"
     pagecolor="#00ffff"
     bordercolor="#666666"
     borderopacity="1.0"
     inkscape:pageopacity="0"
     inkscape:pageshadow="2"
     inkscape:zoom="7.9195959"
     inkscape:cx="109.36876"
     inkscape:cy="-35.747316"
     inkscape:document-units="mm"
     inkscape:current-layer="layer1"
     showgrid="false"
     units="px"
     inkscape:window-width="2269"
     inkscape:window-height="1293"
     inkscape:window-x="174"
     inkscape:window-y="65"
     inkscape:window-maximized="0"
     inkscape:pagecheckerboard="true" />
  <metadata
     id="metadata5">
    <rdf:RDF>
      <cc:Work
         rdf:about="">
        <dc:format>image/svg+xml</dc:format>
        <dc:type
           rdf:resource="http://purl.org/dc/dcmitype/StillImage" />
        <dc:title></dc:title>
      </cc:Work>
    </rdf:RDF>
  </metadata>
  <g
     inkscape:label="Layer 1"
     inkscape:groupmode="layer"
     id="layer1"
     transform="translate(0,-289.59165)">
    <text
       xml:space="preserve"
       style="font-style:normal;font-variant:normal;font-weight:bold;font-stretch:normal;font-size:9.8777771px;line-height:1.25;font-family:'Zilla Slab';-inkscape-font-specification:'Zilla Slab, Bold';font-variant-ligatures:normal;font-variant-caps:normal;font-variant-numeric:normal;text-align:start;letter-spacing:0px;word-spacing:0px;writing-mode:lr-tb;text-anchor:start;fill:#000000;fill-opacity:1;stroke:none;stroke-width:0.26458332"
       x="1.6704345"
       y="295.36295"
       id="text12"><tspan
         sodipodi:role="line"
         id="tspan10"
         x="1.6704345"
         y="304.37149"
         style="stroke-width:0.26458332" /></text>
    <g
       id="g4835">
      <path
         d="M 4.0455998,295.19592 H 2.9329387 L 2.0682803,293.53363 H 1.4784359 v 0.89818 h 0.4691944 v 0.76411 H 0.11106918 v -0.76411 h 0.46919445 v -2.82858 H 0.11106918 v -0.76411 H 2.0816859 q 0.8110361,0 1.2467167,0.33514 0.4356805,0.32843 0.4356805,0.9853 0,0.44239 -0.2278944,0.74401 -0.2278945,0.29493 -0.60325,0.44239 l 0.5898444,1.08585 h 0.5228167 z m -1.2467167,-3.01625 q 0,-0.32843 -0.1943806,-0.44908 -0.1943805,-0.12736 -0.6836833,-0.12736 H 1.4784359 v 1.21991 h 0.4289777 q 0.5161139,0 0.7037917,-0.16757 0.1876778,-0.16757 0.1876778,-0.4759 z"
         style="font-style:normal;font-variant:normal;font-weight:bold;font-stretch:normal;font-size:6.70277786px;line-height:1.25;font-family:'Zilla Slab';-inkscape-font-specification:'Zilla Slab, Bold';font-variant-ligatures:normal;font-variant-caps:normal;font-variant-numeric:normal;font-feature-settings:normal;text-align:start;letter-spacing:0px;word-spacing:0px;writing-mode:lr-tb;text-anchor:start;fill:#ffffff;fill-opacity:1;stroke:none;stroke-width:0.26458332"
         id="path4781"
         inkscape:connector-curvature="0" />
      <path
         d="m 4.7091654,291.63675 v -0.89817 h 0.8646584 v 0.89817 z m 1.3003389,3.55917 H 4.3405126 v -0.65017 h 0.4021667 v -1.71591 H 4.3069987 v -0.65687 h 1.3003389 v 2.37278 h 0.4021667 z"
         style="font-style:normal;font-variant:normal;font-weight:bold;font-stretch:normal;font-size:6.70277786px;line-height:1.25;font-family:'Zilla Slab';-inkscape-font-specification:'Zilla Slab, Bold';font-variant-ligatures:normal;font-variant-caps:normal;font-variant-numeric:normal;font-feature-settings:normal;text-align:start;letter-spacing:0px;word-spacing:0px;writing-mode:lr-tb;text-anchor:start;fill:#ffffff;fill-opacity:1;stroke:none;stroke-width:0.26458332"
         id="path4783"
         inkscape:connector-curvature="0" />
      <path
         d="M 9.8501944,292.82984 H 9.4480277 v 2.21192 q 0,0.7239 -0.4088694,1.17969 -0.4088695,0.46249 -1.2601223,0.46249 -0.4691944,0 -0.8981722,-0.19438 -0.4289778,-0.18768 -0.6233583,-0.7105 l 0.663575,-0.37535 q 0.3217333,0.59655 0.8646583,0.59655 0.3485445,0 0.5697361,-0.25471 0.2278945,-0.248 0.2278945,-0.70379 v -0.39546 q -0.12065,0.22789 -0.3552473,0.38876 -0.2345972,0.16086 -0.6367639,0.16086 -0.5295194,0 -0.9249833,-0.36865 -0.3954639,-0.36865 -0.3954639,-1.08585 0,-0.67698 0.36195,-1.15288 0.36195,-0.47589 0.9987139,-0.47589 0.3552472,0 0.5898445,0.14746 0.2345972,0.14746 0.36195,0.38205 v -0.46919 h 1.266825 z m -1.266825,0.83785 v -0.0737 q 0,-0.37536 -0.1943806,-0.58314 -0.1876778,-0.21449 -0.4826,-0.21449 -0.2882194,0 -0.4826,0.21449 -0.1876778,0.21449 -0.1876778,0.67698 0,0.43568 0.1675695,0.63006 0.1742722,0.19438 0.4490861,0.19438 0.3552472,0 0.542925,-0.25471 0.1876778,-0.2547 0.1876778,-0.58984 z"
         style="font-style:normal;font-variant:normal;font-weight:bold;font-stretch:normal;font-size:6.70277786px;line-height:1.25;font-family:'Zilla Slab';-inkscape-font-specification:'Zilla Slab, Bold';font-variant-ligatures:normal;font-variant-caps:normal;font-variant-numeric:normal;font-feature-settings:normal;text-align:start;letter-spacing:0px;word-spacing:0px;writing-mode:lr-tb;text-anchor:start;fill:#ffffff;fill-opacity:1;stroke:none;stroke-width:0.26458332"
         id="path4785"
         inkscape:connector-curvature="0" />
      <path
         d="M 13.744501,295.19592 H 12.07551 v -0.65017 h 0.402166 v -1.05233 q 0,-0.38876 -0.140758,-0.55633 -0.134056,-0.16757 -0.388761,-0.16757 -0.294922,0 -0.462492,0.18097 -0.160866,0.18098 -0.174272,0.4759 v 1.11936 h 0.402167 v 0.65017 h -1.668992 v -0.65017 h 0.402167 v -3.30447 h -0.402167 v -0.65687 h 1.266825 v 2.05105 q 0.301625,-0.52281 0.971903,-0.52281 0.428978,0 0.744008,0.2547 0.315031,0.25471 0.315031,0.79093 v 1.38747 h 0.402166 z"
         style="font-style:normal;font-variant:normal;font-weight:bold;font-stretch:normal;font-size:6.70277786px;line-height:1.25;font-family:'Zilla Slab';-inkscape-font-specification:'Zilla Slab, Bold';font-variant-ligatures:normal;font-variant-caps:normal;font-variant-numeric:normal;font-feature-settings:normal;text-align:start;letter-spacing:0px;word-spacing:0px;writing-mode:lr-tb;text-anchor:start;fill:#ffffff;fill-opacity:1;stroke:none;stroke-width:0.26458332"
         id="path4787"
         inkscape:connector-curvature="0" />
      <path
         d="m 16.55296,294.25753 q -0.06703,0.52282 -0.36195,0.76412 -0.294922,0.2413 -0.764116,0.2413 -0.502709,0 -0.817739,-0.248 -0.308328,-0.25471 -0.308328,-0.7239 v -1.50142 h -0.428978 v -0.61666 h 0.428978 v -0.91828 h 0.864658 v 0.91828 h 1.08585 v 0.61666 h -1.08585 v 1.35396 q 0,0.39546 0.36195,0.39546 0.08043,0 0.214489,-0.067 0.140759,-0.0737 0.180975,-0.40887 z"
         style="font-style:normal;font-variant:normal;font-weight:bold;font-stretch:normal;font-size:6.70277786px;line-height:1.25;font-family:'Zilla Slab';-inkscape-font-specification:'Zilla Slab, Bold';font-variant-ligatures:normal;font-variant-caps:normal;font-variant-numeric:normal;font-feature-settings:normal;text-align:start;letter-spacing:0px;word-spacing:0px;writing-mode:lr-tb;text-anchor:start;fill:#ffffff;fill-opacity:1;stroke:none;stroke-width:0.26458332"
         id="path4789"
         inkscape:connector-curvature="0" />
      <path
         d="m 20.474067,294.25753 q -0.06703,0.52282 -0.36195,0.76412 -0.294922,0.2413 -0.764117,0.2413 -0.502708,0 -0.817739,-0.248 -0.308328,-0.25471 -0.308328,-0.7239 v -1.50142 h -0.428977 v -0.61666 h 0.428977 v -0.91828 h 0.864659 v 0.91828 h 1.08585 v 0.61666 h -1.08585 v 1.35396 q 0,0.39546 0.36195,0.39546 0.08043,0 0.214489,-0.067 0.140758,-0.0737 0.180975,-0.40887 z"
         style="font-style:normal;font-variant:normal;font-weight:bold;font-stretch:normal;font-size:6.70277786px;line-height:1.25;font-family:'Zilla Slab';-inkscape-font-specification:'Zilla Slab, Bold';font-variant-ligatures:normal;font-variant-caps:normal;font-variant-numeric:normal;font-feature-settings:normal;text-align:start;letter-spacing:0px;word-spacing:0px;writing-mode:lr-tb;text-anchor:start;fill:#ffffff;fill-opacity:1;stroke:none;stroke-width:0.26458332"
         id="path4791"
         inkscape:connector-curvature="0" />
      <path
         d="m 23.791934,293.6878 q 0,0.7172 -0.469194,1.14617 -0.469195,0.42898 -1.193095,0.42898 -0.697089,0 -1.139472,-0.40217 -0.435681,-0.40887 -0.435681,-1.13947 0,-0.66357 0.402167,-1.13947 0.402167,-0.4759 1.219906,-0.4759 0.817739,0 1.213202,0.4759 0.402167,0.46919 0.402167,1.10596 z m -0.891469,-0.0268 q 0,-0.46249 -0.214489,-0.67698 -0.214489,-0.21449 -0.522817,-0.21449 -0.335139,0 -0.529519,0.2413 -0.187678,0.23459 -0.187678,0.66357 0,0.38876 0.174272,0.65687 0.180975,0.26812 0.536222,0.26812 0.335139,0 0.536223,-0.24801 0.207786,-0.2547 0.207786,-0.69038 z"
         style="font-style:normal;font-variant:normal;font-weight:bold;font-stretch:normal;font-size:6.70277786px;line-height:1.25;font-family:'Zilla Slab';-inkscape-font-specification:'Zilla Slab, Bold';font-variant-ligatures:normal;font-variant-caps:normal;font-variant-numeric:normal;font-feature-settings:normal;text-align:start;letter-spacing:0px;word-spacing:0px;writing-mode:lr-tb;text-anchor:start;fill:#ffffff;fill-opacity:1;stroke:none;stroke-width:0.26458332"
         id="path4793"
         inkscape:connector-curvature="0" />
      <path
         d="m 29.636737,295.19592 h -1.896886 v -0.76411 h 0.402167 l -0.797631,-1.07245 h -0.536222 v 1.07245 h 0.368653 v 0.76411 h -1.73602 v -0.76411 h 0.469195 v -2.82858 h -0.469195 v -0.76411 h 1.756128 v 0.76411 h -0.388761 v 1.02553 h 0.549628 l 0.770819,-1.02553 h -0.375355 v -0.76411 h 1.80975 v 0.76411 h -0.489303 l -1.038931,1.30705 1.152878,1.52153 h 0.449086 z"
         style="font-style:normal;font-variant:normal;font-weight:bold;font-stretch:normal;font-size:6.70277786px;line-height:1.25;font-family:'Zilla Slab';-inkscape-font-specification:'Zilla Slab, Bold';font-variant-ligatures:normal;font-variant-caps:normal;font-variant-numeric:normal;font-feature-settings:normal;text-align:start;letter-spacing:0px;word-spacing:0px;writing-mode:lr-tb;text-anchor:start;fill:#ffffff;fill-opacity:1;stroke:none;stroke-width:0.26458332"
         id="path4795"
         inkscape:connector-curvature="0" />
      <path
         d="m 33.591375,295.19592 h -1.668991 v -0.65017 h 0.402166 v -1.05233 q 0,-0.38876 -0.134055,-0.55633 -0.127353,-0.16757 -0.382058,-0.16757 -0.308328,0 -0.475898,0.19438 -0.167569,0.18768 -0.174272,0.496 v 1.08585 h 0.402167 v 0.65017 h -1.668992 v -0.65017 h 0.402167 v -1.71591 h -0.435681 v -0.65687 h 1.300339 v 0.46249 q 0.301625,-0.52281 0.971903,-0.52281 0.428978,0 0.744008,0.2547 0.315031,0.25471 0.315031,0.79093 v 1.38747 h 0.402166 z"
         style="font-style:normal;font-variant:normal;font-weight:bold;font-stretch:normal;font-size:6.70277786px;line-height:1.25;font-family:'Zilla Slab';-inkscape-font-specification:'Zilla Slab, Bold';font-variant-ligatures:normal;font-variant-caps:normal;font-variant-numeric:normal;font-feature-settings:normal;text-align:start;letter-spacing:0px;word-spacing:0px;writing-mode:lr-tb;text-anchor:start;fill:#ffffff;fill-opacity:1;stroke:none;stroke-width:0.26458332"
         id="path4797"
         inkscape:connector-curvature="0" />
      <path
         d="m 37.043294,293.6878 q 0,0.7172 -0.469194,1.14617 -0.469195,0.42898 -1.193095,0.42898 -0.697089,0 -1.139472,-0.40217 -0.435681,-0.40887 -0.435681,-1.13947 0,-0.66357 0.402167,-1.13947 0.402167,-0.4759 1.219906,-0.4759 0.817738,0 1.213202,0.4759 0.402167,0.46919 0.402167,1.10596 z m -0.891469,-0.0268 q 0,-0.46249 -0.214489,-0.67698 -0.214489,-0.21449 -0.522817,-0.21449 -0.335139,0 -0.529519,0.2413 -0.187678,0.23459 -0.187678,0.66357 0,0.38876 0.174272,0.65687 0.180975,0.26812 0.536222,0.26812 0.335139,0 0.536222,-0.24801 0.207787,-0.2547 0.207787,-0.69038 z"
         style="font-style:normal;font-variant:normal;font-weight:bold;font-stretch:normal;font-size:6.70277786px;line-height:1.25;font-family:'Zilla Slab';-inkscape-font-specification:'Zilla Slab, Bold';font-variant-ligatures:normal;font-variant-caps:normal;font-variant-numeric:normal;font-feature-settings:normal;text-align:start;letter-spacing:0px;word-spacing:0px;writing-mode:lr-tb;text-anchor:start;fill:#ffffff;fill-opacity:1;stroke:none;stroke-width:0.26458332"
         id="path4799"
         inkscape:connector-curvature="0" />
      <path
         d="m 42.137392,292.82314 h -0.274814 l -0.817739,2.37278 h -0.643467 l -0.784225,-1.80975 h -0.04022 l -0.710495,1.80975 h -0.609953 l -0.837847,-2.37278 h -0.274814 v -0.65017 h 1.608667 v 0.65017 h -0.415572 l 0.368653,1.17969 h 0.04022 l 0.710495,-1.82986 h 0.516114 l 0.824441,1.80305 h 0.04022 l 0.248003,-1.15288 h -0.395464 v -0.65017 h 1.4478 z"
         style="font-style:normal;font-variant:normal;font-weight:bold;font-stretch:normal;font-size:6.70277786px;line-height:1.25;font-family:'Zilla Slab';-inkscape-font-specification:'Zilla Slab, Bold';font-variant-ligatures:normal;font-variant-caps:normal;font-variant-numeric:normal;font-feature-settings:normal;text-align:start;letter-spacing:0px;word-spacing:0px;writing-mode:lr-tb;text-anchor:start;fill:#ffffff;fill-opacity:1;stroke:none;stroke-width:0.26458332"
         id="path4801"
         inkscape:connector-curvature="0" />
    </g>
    <g
       id="g4840">
      <path
         d="m 45.41397,291.599 q 0,0.38806 -0.20567,0.67134 -0.201789,0.28328 -0.597605,0.28328 -0.368653,0 -0.535517,-0.26 v 0.65969 h 0.310444 v 0.38806 h -1.043869 v -0.38806 h 0.232833 V 291.1411 H 43.32235 v -0.37642 h 0.752828 v 0.33373 q 0.06985,-0.15134 0.20955,-0.26 0.1397,-0.10865 0.380294,-0.10865 0.333728,0 0.539398,0.22895 0.20955,0.22895 0.20955,0.64029 z m -0.519995,0.0505 q 0,-0.25612 -0.116417,-0.38806 -0.112536,-0.13582 -0.291041,-0.13582 -0.194028,0 -0.298803,0.14358 -0.100894,0.14358 -0.108656,0.36478 l -0.0039,0.0621 q 0,0.21344 0.112536,0.33761 0.112536,0.12418 0.298803,0.12418 0.178505,0 0.291041,-0.12418 0.116417,-0.12417 0.116417,-0.38417 z"
         style="font-style:normal;font-variant:normal;font-weight:bold;font-stretch:normal;font-size:3.88055563px;line-height:1.25;font-family:'Zilla Slab';-inkscape-font-specification:'Zilla Slab, Bold';font-variant-ligatures:normal;font-variant-caps:normal;font-variant-numeric:normal;text-align:start;letter-spacing:0px;word-spacing:0px;writing-mode:lr-tb;baseline-shift:super;text-anchor:start;fill:#ffffff;fill-opacity:1;stroke:none;stroke-width:0.26458332"
         id="path4803"
         inkscape:connector-curvature="0" />
      <path
         d="m 46.717833,290.7414 q 0.07373,0 0.162983,0.0233 0.09313,0.0194 0.182386,0.0737 l 0.07761,0.61313 -0.380294,0.0427 -0.06597,-0.29881 q -0.07761,-0.0466 -0.135819,-0.0466 -0.08537,0 -0.151342,0.066 -0.06209,0.066 -0.06209,0.19402 v 0.72955 h 0.310445 v 0.37641 h -1.04387 v -0.37641 h 0.232834 v -0.99342 h -0.252237 v -0.3803 h 0.714023 v 0.33373 q 0.04269,-0.15134 0.135819,-0.25224 0.09701,-0.10477 0.27552,-0.10477 z"
         style="font-style:normal;font-variant:normal;font-weight:bold;font-stretch:normal;font-size:3.88055563px;line-height:1.25;font-family:'Zilla Slab';-inkscape-font-specification:'Zilla Slab, Bold';font-variant-ligatures:normal;font-variant-caps:normal;font-variant-numeric:normal;text-align:start;letter-spacing:0px;word-spacing:0px;writing-mode:lr-tb;baseline-shift:super;text-anchor:start;fill:#ffffff;fill-opacity:1;stroke:none;stroke-width:0.26458332"
         id="path4805"
         inkscape:connector-curvature="0" />
      <path
         d="m 49.16258,291.64169 q 0,0.41522 -0.271639,0.66357 -0.271638,0.24836 -0.690738,0.24836 -0.403578,0 -0.659695,-0.23284 -0.252236,-0.23671 -0.252236,-0.65969 0,-0.38418 0.232833,-0.65969 0.232834,-0.27552 0.706261,-0.27552 0.473428,0 0.702381,0.27552 0.232833,0.27163 0.232833,0.64029 z m -0.516114,-0.0155 q 0,-0.26775 -0.124177,-0.39193 -0.124178,-0.12418 -0.302684,-0.12418 -0.194027,0 -0.306564,0.1397 -0.108655,0.13582 -0.108655,0.38418 0,0.22507 0.100894,0.38029 0.104775,0.15522 0.310445,0.15522 0.194028,0 0.310444,-0.14358 0.120297,-0.14746 0.120297,-0.3997 z"
         style="font-style:normal;font-variant:normal;font-weight:bold;font-stretch:normal;font-size:3.88055563px;line-height:1.25;font-family:'Zilla Slab';-inkscape-font-specification:'Zilla Slab, Bold';font-variant-ligatures:normal;font-variant-caps:normal;font-variant-numeric:normal;text-align:start;letter-spacing:0px;word-spacing:0px;writing-mode:lr-tb;baseline-shift:super;text-anchor:start;fill:#ffffff;fill-opacity:1;stroke:none;stroke-width:0.26458332"
         id="path4807"
         inkscape:connector-curvature="0" />
    </g>
  </g>
</svg>
